<svg width="20" height="21" viewBox="0 0 20 21" fill="none" xmlns="http://www.w3.org/2000/svg">
<path d="M14.375 5.95503C14.3751 5.11641 14.1341 4.29543 13.6809 3.58986C13.2276 2.8843 12.5811 2.32388 11.8183 1.97534C11.0555 1.6268 10.2087 1.50483 9.37853 1.62396C8.54842 1.74308 7.77002 2.09828 7.13606 2.64726C6.50209 3.19624 6.03926 3.91585 5.80269 4.72042C5.56611 5.52498 5.56576 6.38059 5.80168 7.18534C6.0376 7.9901 6.49984 8.71009 7.13336 9.25959C7.76688 9.80908 8.54498 10.1649 9.375 10.2847V18.455C9.375 18.6208 9.44085 18.7798 9.55806 18.897C9.67527 19.0142 9.83424 19.08 10 19.08C10.1658 19.08 10.3247 19.0142 10.4419 18.897C10.5592 18.7798 10.625 18.6208 10.625 18.455V10.2847C11.6656 10.1331 12.6169 9.61225 13.3053 8.81739C13.9938 8.02252 14.3734 7.00659 14.375 5.95503ZM10 9.08003C9.38193 9.08003 8.77775 8.89675 8.26384 8.55337C7.74994 8.20999 7.3494 7.72194 7.11288 7.15092C6.87635 6.5799 6.81447 5.95157 6.93505 5.34537C7.05562 4.73918 7.35325 4.18236 7.79029 3.74532C8.22733 3.30828 8.78415 3.01066 9.39034 2.89008C9.99653 2.7695 10.6249 2.83138 11.1959 3.06791C11.7669 3.30443 12.255 3.70497 12.5983 4.21888C12.9417 4.73278 13.125 5.33697 13.125 5.95503C13.125 6.36541 13.0442 6.77178 12.8871 7.15092C12.7301 7.53006 12.4999 7.87456 12.2097 8.16474C11.9195 8.45492 11.575 8.68511 11.1959 8.84216C10.8167 8.9992 10.4104 9.08003 10 9.08003Z" fill="#343330"/>
</svg>
