<svg width="20" height="20" viewBox="0 0 20 20" fill="none" xmlns="http://www.w3.org/2000/svg">
<path d="M9.375 8.06235V13.7499C9.375 13.9156 9.44085 14.0746 9.55806 14.1918C9.67527 14.309 9.83424 14.3749 10 14.3749C10.1658 14.3749 10.3247 14.309 10.4419 14.1918C10.5592 14.0746 10.625 13.9156 10.625 13.7499V8.06235C11.3838 7.90747 12.058 7.47636 12.517 6.85261C12.976 6.22886 13.187 5.4569 13.1092 4.6864C13.0313 3.9159 12.6702 3.20174 12.0957 2.68239C11.5213 2.16304 10.7744 1.87549 10 1.87549C9.22558 1.87549 8.47874 2.16304 7.90428 2.68239C7.32982 3.20174 6.96866 3.9159 6.89082 4.6864C6.81299 5.4569 7.02402 6.22886 7.483 6.85261C7.94198 7.47636 8.61622 7.90747 9.375 8.06235ZM10 3.12485C10.3708 3.12485 10.7334 3.23482 11.0417 3.44085C11.35 3.64687 11.5904 3.93971 11.7323 4.28232C11.8742 4.62493 11.9113 5.00193 11.839 5.36564C11.7666 5.72936 11.588 6.06345 11.3258 6.32568C11.0636 6.5879 10.7295 6.76648 10.3658 6.83882C10.0021 6.91117 9.62508 6.87404 9.28247 6.73212C8.93986 6.59021 8.64702 6.34989 8.44099 6.04154C8.23497 5.7332 8.125 5.37069 8.125 4.99985C8.125 4.50257 8.32254 4.02566 8.67417 3.67403C9.02581 3.32239 9.50272 3.12485 10 3.12485ZM18.75 13.7499C18.75 16.1858 14.2414 17.4999 10 17.4999C5.75859 17.4999 1.25 16.1858 1.25 13.7499C1.25 13.1452 1.54766 12.2553 2.96875 11.4522C3.92656 10.91 5.24375 10.4936 6.77891 10.2475C6.86011 10.2347 6.94305 10.238 7.02298 10.2572C7.10291 10.2764 7.17827 10.3112 7.24476 10.3596C7.31124 10.4079 7.36756 10.4689 7.41048 10.539C7.4534 10.6091 7.4821 10.687 7.49492 10.7682C7.50775 10.8494 7.50445 10.9323 7.48522 11.0123C7.466 11.0922 7.43121 11.1676 7.38286 11.2341C7.33451 11.3005 7.27354 11.3569 7.20342 11.3998C7.13331 11.4427 7.05542 11.4714 6.97422 11.4842C5.60391 11.7045 4.39609 12.0803 3.58203 12.5428C2.89453 12.9295 2.5 13.3702 2.5 13.7499C2.5 14.7936 5.35313 16.2499 10 16.2499C14.6469 16.2499 17.5 14.7936 17.5 13.7499C17.5 13.3702 17.1055 12.9295 16.418 12.5397C15.6008 12.0772 14.3961 11.7014 13.0258 11.4811C12.9429 11.4703 12.8629 11.4429 12.7908 11.4006C12.7186 11.3583 12.6557 11.302 12.6057 11.235C12.5557 11.1679 12.5197 11.0915 12.4997 11.0103C12.4798 10.9291 12.4764 10.8447 12.4897 10.7621C12.5029 10.6795 12.5327 10.6005 12.5771 10.5296C12.6215 10.4587 12.6796 10.3975 12.7481 10.3495C12.8166 10.3015 12.8941 10.2677 12.9758 10.2502C13.0576 10.2327 13.1421 10.2318 13.2242 10.2475C14.7594 10.4936 16.0766 10.91 17.0344 11.4522C18.4523 12.2553 18.75 13.1452 18.75 13.7499Z" fill="#343330"/>
</svg>
